<?xml version="1.0" standalone="no"?><!DOCTYPE svg PUBLIC "-//W3C//DTD SVG 1.1//EN" "http://www.w3.org/Graphics/SVG/1.1/DTD/svg11.dtd"><svg t="1765327973258" class="icon" viewBox="0 0 1024 1024" version="1.1" xmlns="http://www.w3.org/2000/svg" p-id="1764" xmlns:xlink="http://www.w3.org/1999/xlink" width="200" height="200"><path d="M808 555.8l-72.3-39.5 72.2-39.5 39.5-72.3 39.5 72.2 72.3 39.5-72.2 39.6-39.5 72.3-39.5-72.3zM657.4 779.5L585.1 740l72.2-39.5 39.5-72.3 39.5 72.3 72.3 39.5-72.3 39.5-39.5 72.3-39.4-72.3zM230.8 268.4l-97.3-53.2 97.3-53.2L284 64.7l53.2 97.3 97.3 53.2-97.3 53.2-53.2 97.4-53.2-97.4z m503.9 20.9c19.9 19.9 31.1 46.9 31.1 75s-11.2 55.1-31.1 75L247.1 926.9c-26.6 27.6-66.1 38.6-103.2 28.9-37.1-9.7-66.1-38.7-75.8-75.8-9.7-37.1 1.4-76.5 28.9-103.2l487.6-487.6c19.9-19.9 46.9-31.1 75-31.1 28.2 0.1 55.2 11.3 75.1 31.2zM535.1 563.6l159.3-159.3c13.3-13.3 18.6-32.8 13.7-51-4.9-18.2-19.1-32.5-37.3-37.4-18.2-4.9-37.7 0.3-51 13.7L460.4 489c17.3 4.6 33.7 13.7 47.3 27.4 13.6 13.5 22.7 29.9 27.4 47.2z" fill="#333333" p-id="1765"></path></svg>